<?xml version="1.0" encoding="UTF-8"?>
<svg id="Layer_2" data-name="Layer 2" xmlns="http://www.w3.org/2000/svg" viewBox="0 0 164.6 203.61">
  <defs>
    <style>
      .cls-1 {
        fill: #fff;
      }
    </style>
  </defs>
  <g id="Layer_1-2" data-name="Layer 1">
    <g>
      <path class="cls-1" d="m142.54,128.46c-1.12-.9-2.22-1.85-3.27-2.83-.04-.05-.06-.07-.1-.09-3.92-3.13-8.37-5.81-13.49-7.76-8.17-3.13-14.96-7.27-20.54-11.71-1.76-1.37-3.4-2.79-4.91-4.23-12.68-11.91-17.41-24.29-17.41-24.29,0,0-1.08,12.36-15.77,24.99-1.66,1.4-3.46,2.81-5.47,4.21-4.89,3.44-10.92,6.78-18.32,9.81C5.72,131.84,0,170.64,0,170.64c8.35-12.52,21.8-17.58,36-21.66,8.08-2.32,16.19-4.48,24.14-7.04,9.45-3.06,17.26-8.06,22.61-16.77,5.7,9.79,15.23,14.68,26.05,18.01,8.31,2.54,16.77,4.75,25.12,7.22,12.68,3.72,23.94,9.14,30.67,20.73,0,0-4.19-25.86-22.05-42.66Zm-6.57,16.7c-3.52-1.04-7.05-2.02-10.57-3.02-4.79-1.35-9.72-2.72-14.49-4.17-11.59-3.56-18.32-8.13-22.49-15.29l-5.55-9.5-5.76,9.41c-4.14,6.78-10.24,11.28-19.19,14.16-5.57,1.8-11.38,3.45-16.99,5.02-2.32.67-4.62,1.3-6.92,1.96-6.71,1.93-13.8,4.21-20.48,7.65,5.7-10.65,15.59-22.92,32.41-29.78,9.7-3.96,17.22-8.46,23.05-13.03,1.99-1.57,3.79-3.13,5.39-4.68,4.29-4.12,7.34-8.15,9.49-11.77,2.4,3.49,5.51,7.4,9.41,11.32,1.49,1.55,3.15,3.08,4.91,4.61,6.49,5.58,14.69,10.89,24.91,14.79,14.2,5.43,22.96,17.47,28.19,28.27-5.16-2.68-10.49-4.52-15.32-5.94Z"/>
      <path class="cls-1" d="m82.3,0C47.38,0,19.09,24.58,19.09,54.88c0,24.02,17.74,44.43,42.49,51.88,2.4.72,4.89,1.33,7.42,1.8,1.99-1.57,3.79-3.13,5.39-4.68,4.29-4.12,7.34-8.15,9.49-11.77,2.4,3.49,5.51,7.4,9.41,11.32,1.49,1.55,3.15,3.08,4.91,4.61,2.38-.54,4.68-1.19,6.94-1.96,23.63-7.94,40.37-27.87,40.37-51.19C145.51,24.58,117.22,0,82.3,0Zm17.93,101.85c-12.68-11.91-17.41-24.29-17.41-24.29,0,0-1.08,12.36-15.77,24.99-24.04-5.78-41.74-24.96-41.74-47.67,0-27.28,25.57-49.48,56.99-49.48s56.99,22.2,56.99,49.48c0,21.86-16.39,40.43-39.07,46.96Z"/>
      <path class="cls-1" d="m100.22,101.85c-2.26.67-4.58,1.19-6.94,1.58-3.9-3.92-7.01-7.83-9.41-11.32-2.16,3.62-5.2,7.65-9.49,11.77-2.51-.29-4.95-.74-7.34-1.33,14.69-12.63,15.77-24.99,15.77-24.99,0,0,4.73,12.38,17.41,24.29Z"/>
      <path class="cls-1" d="m143.06,151.59c-4.61,9.53-12.35,20.15-24.86,24.93-17.78,6.78-28.61,18.41-34.62,27.1-4.76-7.95-14.31-18.18-33.45-25.99-14.84-6.05-23.57-16.88-28.59-26.26,5.88,3.02,12.13,5.04,18.05,6.73,2.03.59,4.07,1.16,6.11,1.75,4.94,1.38,10.08,2.82,14.98,4.42,7.91,2.54,13.28,6.51,16.93,12.49l5.08,8.31,4.91-8.4c3.67-6.31,9.6-10.34,19.83-13.48,4.2-1.29,8.57-2.51,12.78-3.7,3.11-.88,6.22-1.74,9.34-2.67,4.25-1.25,8.95-2.86,13.51-5.23Z"/>
      <path class="cls-1" d="m106.71,83.12c-1.8-.94-3.67-1.58-5.35-2.07-1.24-.36-2.49-.72-3.71-1.06-1.68-.47-3.4-.95-5.06-1.46-4.06-1.24-6.42-2.84-7.88-5.34l-1.6-2.74-1.6,2.74c-1.45,2.5-3.81,4.1-7.88,5.34-1.66.5-3.38.99-5.06,1.46-1.22.34-2.47.7-3.71,1.06-1.68.49-3.54,1.13-5.35,2.07,1.82-3.78,4.89-7.99,9.87-9.88,7.05-2.7,11.34-7.31,13.72-10.74,2.38,3.44,6.67,8.04,13.72,10.74,4.97,1.89,8.04,6.1,9.87,9.88Z"/>
      <ellipse class="cls-1" cx="64.65" cy="45.25" rx="10.39" ry="9.02"/>
      <ellipse class="cls-1" cx="100.22" cy="45.25" rx="10.39" ry="9.02"/>
    </g>
  </g>
</svg>